<svg width="318" height="41" viewBox="0 0 318 41" fill="none" xmlns="http://www.w3.org/2000/svg">
<path d="M16.3281 28.4414C16.3281 29.444 16.0612 30.1732 15.5273 30.6289C15.0065 31.0846 14.2057 31.3125 13.125 31.3125C12.0312 31.3125 11.224 31.0846 10.7031 30.6289C10.1823 30.1732 9.92188 29.444 9.92188 28.4414V5.08203C9.92188 4.36589 9.42708 4.00781 8.4375 4.00781C7.72135 4.00781 6.99219 4.11849 6.25 4.33984C5.52083 4.54818 4.85677 4.84115 4.25781 5.21875C3.67188 5.58333 3.1901 6.02604 2.8125 6.54688C2.4349 7.05469 2.24609 7.60807 2.24609 8.20703C2.24609 8.6237 2.29818 8.95573 2.40234 9.20312C2.51953 9.45052 2.64974 9.63932 2.79297 9.76953C2.9362 9.88672 3.07943 9.96484 3.22266 10.0039C3.37891 10.0299 3.48958 10.043 3.55469 10.043C3.88021 10.043 4.14714 9.99089 4.35547 9.88672C4.5638 9.76953 4.7526 9.65234 4.92188 9.53516C5.09115 9.40495 5.2474 9.28776 5.39062 9.18359C5.54688 9.06641 5.72266 9.00781 5.91797 9.00781C6.07422 9.00781 6.23698 9.04688 6.40625 9.125C6.58854 9.1901 6.7513 9.30078 6.89453 9.45703C7.05078 9.61328 7.18099 9.82161 7.28516 10.082C7.38932 10.3294 7.44141 10.6354 7.44141 11C7.44141 11.5208 7.33724 11.9701 7.12891 12.3477C6.93359 12.7253 6.67318 13.0443 6.34766 13.3047C6.03516 13.5521 5.67057 13.7409 5.25391 13.8711C4.85026 13.9883 4.44661 14.0469 4.04297 14.0469C3.41797 14.0469 2.85156 13.9427 2.34375 13.7344C1.84896 13.513 1.42578 13.2135 1.07422 12.8359C0.722656 12.4583 0.455729 12.0156 0.273438 11.5078C0.0911458 11 0 10.4596 0 9.88672C0 8.80599 0.201823 7.85547 0.605469 7.03516C1.00911 6.20182 1.57552 5.48568 2.30469 4.88672C3.04688 4.28776 3.93229 3.79297 4.96094 3.40234C5.98958 2.9987 7.12891 2.67969 8.37891 2.44531C9.62891 2.21094 10.9635 2.04818 12.3828 1.95703C13.8151 1.85286 15.2995 1.80078 16.8359 1.80078C20.5599 1.80078 23.3789 2.51693 25.293 3.94922C27.207 5.36849 28.1641 7.41276 28.1641 10.082C28.1641 11.3841 27.9883 12.5365 27.6367 13.5391C27.2982 14.5417 26.8359 15.4076 26.25 16.1367C25.6771 16.8529 25.013 17.4388 24.2578 17.8945C23.5026 18.3372 22.7214 18.6562 21.9141 18.8516C21.1068 19.0469 20.293 19.125 19.4727 19.0859C18.6654 19.0469 17.9102 18.8971 17.207 18.6367L17.4805 17.7969C18.457 18.0964 19.2578 18.1094 19.8828 17.8359C20.5208 17.5495 21.0156 17.0482 21.3672 16.332C21.7318 15.6159 21.9792 14.7109 22.1094 13.6172C22.2526 12.5234 22.3242 11.319 22.3242 10.0039C22.3242 9.01432 22.2201 8.11589 22.0117 7.30859C21.8034 6.48828 21.5169 5.79167 21.1523 5.21875C20.8008 4.64583 20.3841 4.20312 19.9023 3.89062C19.4336 3.5651 18.9323 3.40234 18.3984 3.40234C17.9818 3.40234 17.6367 3.46745 17.3633 3.59766C17.1029 3.71484 16.8945 3.87109 16.7383 4.06641C16.5951 4.2487 16.4909 4.45052 16.4258 4.67188C16.3737 4.88021 16.3411 5.08203 16.3281 5.27734V28.4414ZM37.2656 12.2891C36.9661 12.2891 36.6797 12.3281 36.4062 12.4062C36.1458 12.4844 35.9115 12.6146 35.7031 12.7969C35.4948 12.9661 35.332 13.1875 35.2148 13.4609C35.0977 13.7214 35.0391 14.0339 35.0391 14.3984C35.0391 14.9062 35.2214 15.4141 35.5859 15.9219C35.9635 16.4167 36.4258 16.9375 36.9727 17.4844C37.5326 18.0182 38.1315 18.5781 38.7695 19.1641C39.4206 19.737 40.0195 20.349 40.5664 21C41.1263 21.638 41.5885 22.3216 41.9531 23.0508C42.3307 23.7799 42.5195 24.5612 42.5195 25.3945C42.5195 26.332 42.3568 27.1654 42.0312 27.8945C41.7188 28.6237 41.263 29.2422 40.6641 29.75C40.0781 30.2578 39.362 30.6484 38.5156 30.9219C37.6823 31.1823 36.7513 31.3125 35.7227 31.3125C34.8242 31.3125 34.0104 31.1888 33.2812 30.9414C32.5521 30.681 31.901 30.3685 31.3281 30.0039C30.7682 29.6263 30.2865 29.2292 29.8828 28.8125C29.4792 28.3958 29.1667 28.0182 28.9453 27.6797L29.6289 27.1914C29.7982 27.3867 30.013 27.6016 30.2734 27.8359C30.5339 28.0573 30.8203 28.2656 31.1328 28.4609C31.4583 28.6562 31.8034 28.819 32.168 28.9492C32.5326 29.0664 32.9036 29.125 33.2812 29.125C34.2188 29.125 34.987 28.9036 35.5859 28.4609C36.1849 28.0052 36.4844 27.3346 36.4844 26.4492C36.4844 25.9544 36.3216 25.4466 35.9961 24.9258C35.6706 24.3919 35.2604 23.8451 34.7656 23.2852C34.2708 22.7253 33.737 22.1458 33.1641 21.5469C32.5911 20.9479 32.0573 20.3294 31.5625 19.6914C31.0677 19.0534 30.6576 18.3958 30.332 17.7188C30.0065 17.0417 29.8438 16.3385 29.8438 15.6094C29.8438 14.7891 30.0065 14.0729 30.332 13.4609C30.6706 12.849 31.1133 12.3411 31.6602 11.9375C32.2201 11.5339 32.8516 11.2344 33.5547 11.0391C34.2708 10.8307 35.0065 10.7266 35.7617 10.7266C36.6341 10.7266 37.4284 10.8047 38.1445 10.9609C38.8607 11.1172 39.4727 11.3581 39.9805 11.6836C40.5013 11.9961 40.8984 12.3932 41.1719 12.875C41.4583 13.3568 41.6016 13.9167 41.6016 14.5547C41.6016 15.0495 41.4388 15.4792 41.1133 15.8438C40.7878 16.2083 40.332 16.3906 39.7461 16.3906C39.1862 16.3906 38.7565 16.2734 38.457 16.0391C38.1706 15.7917 38.0273 15.4596 38.0273 15.043C38.0273 14.7695 38.0924 14.5547 38.2227 14.3984C38.3659 14.2422 38.5221 14.1185 38.6914 14.0273C38.8607 13.9232 39.0104 13.8385 39.1406 13.7734C39.2839 13.6953 39.3555 13.5977 39.3555 13.4805C39.3555 13.1159 39.1602 12.8294 38.7695 12.6211C38.3789 12.3997 37.8776 12.2891 37.2656 12.2891ZM61.7188 13.793C61.7188 16.1758 61.4844 18.4805 61.0156 20.707C60.5599 22.9206 59.9219 25.0039 59.1016 26.957C58.2943 28.8971 57.3307 30.668 56.2109 32.2695C55.0911 33.8841 53.8737 35.2643 52.5586 36.4102C51.2435 37.556 49.8503 38.4479 48.3789 39.0859C46.9206 39.724 45.4427 40.043 43.9453 40.043C42.7995 40.043 41.9141 39.8477 41.2891 39.457C40.6641 39.0794 40.3516 38.5651 40.3516 37.9141C40.3516 37.6667 40.3906 37.4258 40.4688 37.1914C40.5469 36.957 40.651 36.7487 40.7812 36.5664C40.9115 36.3841 41.0677 36.2344 41.25 36.1172C41.4323 36.013 41.6276 35.9609 41.8359 35.9609C42.0833 35.9609 42.2917 36.0846 42.4609 36.332C42.6172 36.5794 42.7865 36.8464 42.9688 37.1328C43.151 37.4323 43.3724 37.7057 43.6328 37.9531C43.8932 38.2005 44.2513 38.3242 44.707 38.3242C45.293 38.3242 45.9049 38.2201 46.543 38.0117C47.181 37.8164 47.819 37.5299 48.457 37.1523C49.1081 36.7747 49.7526 36.3125 50.3906 35.7656C51.0417 35.2318 51.6797 34.6328 52.3047 33.9688C51.9401 32.6536 51.5169 31.2214 51.0352 29.6719C50.5664 28.1094 50.0651 26.5404 49.5312 24.9648C49.0104 23.3893 48.4701 21.8724 47.9102 20.4141C47.3633 18.9427 46.8229 17.6406 46.2891 16.5078C45.7682 15.375 45.2604 14.4701 44.7656 13.793C44.2839 13.1029 43.8542 12.7578 43.4766 12.7578C43.2292 12.7578 43.0404 12.7969 42.9102 12.875C42.7669 12.9531 42.6042 13.0638 42.4219 13.207L42.0312 12.7188C42.2917 12.4974 42.5651 12.2695 42.8516 12.0352C43.138 11.8008 43.4766 11.5859 43.8672 11.3906C44.2578 11.1953 44.7135 11.0391 45.2344 10.9219C45.7552 10.7917 46.3802 10.7266 47.1094 10.7266C47.9036 10.7266 48.6393 10.9089 49.3164 11.2734C50.0065 11.625 50.6315 12.2826 51.1914 13.2461C51.5951 13.9622 52.0117 14.8216 52.4414 15.8242C52.8841 16.8268 53.3268 17.9466 53.7695 19.1836C54.2122 20.4206 54.6549 21.7617 55.0977 23.207C55.5534 24.6393 56.0091 26.1432 56.4648 27.7188C57.2721 26.026 57.9232 24.2357 58.418 22.3477C58.9128 20.4466 59.1602 18.4935 59.1602 16.4883C59.1602 15.7721 59.1146 15.1602 59.0234 14.6523C58.9323 14.1445 58.8281 13.7148 58.7109 13.3633C58.5938 12.9987 58.4896 12.6927 58.3984 12.4453C58.3073 12.1849 58.2617 11.957 58.2617 11.7617C58.2617 11.5664 58.3398 11.4036 58.4961 11.2734C58.6523 11.1302 58.8411 11.0195 59.0625 10.9414C59.2839 10.8633 59.5052 10.8112 59.7266 10.7852C59.9609 10.7461 60.1562 10.7266 60.3125 10.7266C60.6641 10.7266 60.931 10.7982 61.1133 10.9414C61.3086 11.0846 61.4518 11.293 61.543 11.5664C61.6341 11.8268 61.6862 12.1458 61.6992 12.5234C61.7122 12.901 61.7188 13.3242 61.7188 13.793ZM77.7734 17.4844C77.3698 17.4844 77.0312 17.4258 76.7578 17.3086C76.4844 17.1784 76.263 17.0091 76.0938 16.8008C75.9245 16.5924 75.8008 16.3646 75.7227 16.1172C75.6445 15.8568 75.6055 15.5898 75.6055 15.3164C75.6055 14.9648 75.625 14.6263 75.6641 14.3008C75.7161 13.9753 75.7227 13.6823 75.6836 13.4219C75.6576 13.1615 75.5599 12.9531 75.3906 12.7969C75.2214 12.6406 74.9219 12.5625 74.4922 12.5625C74.0365 12.5625 73.5547 12.6927 73.0469 12.9531C72.5391 13.2135 72.0768 13.6237 71.6602 14.1836C71.2435 14.7435 70.8984 15.4661 70.625 16.3516C70.3516 17.224 70.2148 18.2786 70.2148 19.5156C70.2148 20.8828 70.3385 22.1328 70.5859 23.2656C70.8464 24.3854 71.2305 25.3424 71.7383 26.1367C72.2461 26.931 72.8776 27.5495 73.6328 27.9922C74.388 28.4219 75.2734 28.6367 76.2891 28.6367C76.7448 28.6367 77.1745 28.5846 77.5781 28.4805C77.9948 28.3763 78.3854 28.2331 78.75 28.0508C79.1146 27.8685 79.4596 27.6602 79.7852 27.4258C80.1237 27.1784 80.4492 26.918 80.7617 26.6445L81.25 27.1133C80.9505 27.5169 80.5664 27.9596 80.0977 28.4414C79.6289 28.9232 79.0625 29.3789 78.3984 29.8086C77.7344 30.2253 76.9596 30.5768 76.0742 30.8633C75.1888 31.1367 74.1797 31.2734 73.0469 31.2734C71.9141 31.2734 70.8073 31.0586 69.7266 30.6289C68.6589 30.1862 67.7083 29.5482 66.875 28.7148C66.0417 27.8815 65.3711 26.8724 64.8633 25.6875C64.3685 24.4896 64.1211 23.1289 64.1211 21.6055C64.1211 20.4206 64.2708 19.3333 64.5703 18.3438C64.8698 17.3411 65.2734 16.4362 65.7812 15.6289C66.3021 14.8216 66.901 14.112 67.5781 13.5C68.2682 12.888 68.9909 12.3802 69.7461 11.9766C70.5013 11.5599 71.2695 11.2474 72.0508 11.0391C72.8451 10.8307 73.6068 10.7266 74.3359 10.7266C75.2995 10.7266 76.1393 10.8372 76.8555 11.0586C77.5716 11.2799 78.1641 11.5729 78.6328 11.9375C79.1146 12.3021 79.4727 12.7253 79.707 13.207C79.9414 13.6758 80.0586 14.1641 80.0586 14.6719C80.0586 15.0495 80.0065 15.4141 79.9023 15.7656C79.8112 16.1042 79.668 16.4036 79.4727 16.6641C79.2904 16.9115 79.056 17.1133 78.7695 17.2695C78.4831 17.4128 78.151 17.4844 77.7734 17.4844ZM89.9219 14.4375C90.4036 13.7474 90.9505 13.1289 91.5625 12.582C91.8099 12.3477 92.0833 12.1198 92.3828 11.8984C92.6953 11.6771 93.0208 11.4818 93.3594 11.3125C93.7109 11.1302 94.0755 10.987 94.4531 10.8828C94.8438 10.7786 95.2409 10.7266 95.6445 10.7266C96.5169 10.7266 97.2982 10.8958 97.9883 11.2344C98.6784 11.5729 99.2578 12.1393 99.7266 12.9336C100.195 13.7279 100.553 14.7826 100.801 16.0977C101.048 17.3997 101.172 19.0208 101.172 20.9609C101.172 22.849 101.003 24.4896 100.664 25.8828C100.326 27.276 99.8828 28.4609 99.3359 29.4375C98.7891 30.4141 98.1706 31.2083 97.4805 31.8203C96.7904 32.4453 96.0938 32.9336 95.3906 33.2852C94.6875 33.6367 94.0104 33.8776 93.3594 34.0078C92.7083 34.151 92.1484 34.2292 91.6797 34.2422L91.4844 33.4414C92.0703 33.2982 92.5911 33.0312 93.0469 32.6406C93.5026 32.25 93.8867 31.612 94.1992 30.7266C94.5117 29.8281 94.7461 28.6237 94.9023 27.1133C95.0716 25.6029 95.1562 23.6562 95.1562 21.2734C95.1562 19.6328 95.0781 18.3242 94.9219 17.3477C94.7786 16.3581 94.5833 15.6094 94.3359 15.1016C94.1016 14.5807 93.8281 14.2422 93.5156 14.0859C93.2161 13.9167 92.9102 13.832 92.5977 13.832C92.2201 13.832 91.888 13.9362 91.6016 14.1445C91.3151 14.3398 91.0612 14.5677 90.8398 14.8281C90.6315 15.0885 90.4492 15.349 90.293 15.6094C90.1497 15.8698 90.026 16.0651 89.9219 16.1953V29.2422C89.9219 29.4115 89.8958 29.6198 89.8438 29.8672C89.7917 30.1016 89.6615 30.3294 89.4531 30.5508C89.2578 30.7591 88.9583 30.9349 88.5547 31.0781C88.1641 31.2344 87.6237 31.3125 86.9336 31.3125C86.2435 31.3125 85.6966 31.2279 85.293 31.0586C84.8893 30.9023 84.5833 30.7135 84.375 30.4922C84.1797 30.2708 84.056 30.043 84.0039 29.8086C83.9518 29.5742 83.9258 29.3854 83.9258 29.2422V4.04688C83.9258 3.66927 83.8346 3.34375 83.6523 3.07031C83.4831 2.78385 83.1901 2.64062 82.7734 2.64062C82.5521 2.64062 82.3568 2.67969 82.1875 2.75781C82.0312 2.82292 81.862 2.92708 81.6797 3.07031L81.2891 2.60156C81.5885 2.35417 81.9206 2.11328 82.2852 1.87891C82.6497 1.63151 83.0469 1.41667 83.4766 1.23438C83.9193 1.05208 84.388 0.902344 84.8828 0.785156C85.3776 0.667969 85.8984 0.609375 86.4453 0.609375C87.2917 0.609375 87.9492 0.726562 88.418 0.960938C88.8867 1.18229 89.2318 1.46224 89.4531 1.80078C89.6745 2.1263 89.8047 2.47786 89.8438 2.85547C89.8958 3.22005 89.9219 3.54557 89.9219 3.83203V14.4375ZM111.445 29.2422C111.445 29.4115 111.413 29.6198 111.348 29.8672C111.296 30.1016 111.159 30.3294 110.938 30.5508C110.729 30.7591 110.423 30.9349 110.02 31.0781C109.616 31.2344 109.069 31.3125 108.379 31.3125C107.689 31.3125 107.148 31.2279 106.758 31.0586C106.367 30.9023 106.074 30.7135 105.879 30.4922C105.684 30.2708 105.56 30.043 105.508 29.8086C105.469 29.5742 105.449 29.3854 105.449 29.2422V14.1641C105.449 13.7865 105.358 13.4609 105.176 13.1875C105.007 12.901 104.714 12.7578 104.297 12.7578C104.076 12.7578 103.887 12.7969 103.73 12.875C103.574 12.9531 103.405 13.0638 103.223 13.207L102.812 12.7188C103.112 12.4714 103.444 12.2305 103.809 11.9961C104.186 11.7487 104.59 11.5339 105.02 11.3516C105.449 11.1693 105.911 11.0195 106.406 10.9023C106.901 10.7852 107.422 10.7266 107.969 10.7266C108.815 10.7266 109.473 10.8438 109.941 11.0781C110.41 11.2995 110.755 11.5794 110.977 11.918C111.198 12.2435 111.328 12.5951 111.367 12.9727C111.419 13.3503 111.445 13.6823 111.445 13.9688V29.2422ZM104.844 6.27344C104.844 5.90885 104.922 5.5638 105.078 5.23828C105.247 4.89974 105.475 4.60677 105.762 4.35938C106.061 4.11198 106.4 3.91667 106.777 3.77344C107.168 3.63021 107.591 3.55859 108.047 3.55859C108.49 3.55859 108.9 3.63021 109.277 3.77344C109.668 3.91667 110.007 4.11198 110.293 4.35938C110.579 4.60677 110.801 4.89974 110.957 5.23828C111.126 5.5638 111.211 5.90885 111.211 6.27344C111.211 6.65104 111.126 7.0026 110.957 7.32812C110.801 7.65365 110.579 7.9401 110.293 8.1875C110.007 8.42188 109.668 8.61068 109.277 8.75391C108.9 8.89714 108.49 8.96875 108.047 8.96875C107.591 8.96875 107.168 8.89714 106.777 8.75391C106.4 8.61068 106.061 8.42188 105.762 8.1875C105.475 7.9401 105.247 7.65365 105.078 7.32812C104.922 7.0026 104.844 6.65104 104.844 6.27344ZM128.789 17.4844C128.385 17.4844 128.047 17.4258 127.773 17.3086C127.5 17.1784 127.279 17.0091 127.109 16.8008C126.94 16.5924 126.816 16.3646 126.738 16.1172C126.66 15.8568 126.621 15.5898 126.621 15.3164C126.621 14.9648 126.641 14.6263 126.68 14.3008C126.732 13.9753 126.738 13.6823 126.699 13.4219C126.673 13.1615 126.576 12.9531 126.406 12.7969C126.237 12.6406 125.938 12.5625 125.508 12.5625C125.052 12.5625 124.57 12.6927 124.062 12.9531C123.555 13.2135 123.092 13.6237 122.676 14.1836C122.259 14.7435 121.914 15.4661 121.641 16.3516C121.367 17.224 121.23 18.2786 121.23 19.5156C121.23 20.8828 121.354 22.1328 121.602 23.2656C121.862 24.3854 122.246 25.3424 122.754 26.1367C123.262 26.931 123.893 27.5495 124.648 27.9922C125.404 28.4219 126.289 28.6367 127.305 28.6367C127.76 28.6367 128.19 28.5846 128.594 28.4805C129.01 28.3763 129.401 28.2331 129.766 28.0508C130.13 27.8685 130.475 27.6602 130.801 27.4258C131.139 27.1784 131.465 26.918 131.777 26.6445L132.266 27.1133C131.966 27.5169 131.582 27.9596 131.113 28.4414C130.645 28.9232 130.078 29.3789 129.414 29.8086C128.75 30.2253 127.975 30.5768 127.09 30.8633C126.204 31.1367 125.195 31.2734 124.062 31.2734C122.93 31.2734 121.823 31.0586 120.742 30.6289C119.674 30.1862 118.724 29.5482 117.891 28.7148C117.057 27.8815 116.387 26.8724 115.879 25.6875C115.384 24.4896 115.137 23.1289 115.137 21.6055C115.137 20.4206 115.286 19.3333 115.586 18.3438C115.885 17.3411 116.289 16.4362 116.797 15.6289C117.318 14.8216 117.917 14.112 118.594 13.5C119.284 12.888 120.007 12.3802 120.762 11.9766C121.517 11.5599 122.285 11.2474 123.066 11.0391C123.861 10.8307 124.622 10.7266 125.352 10.7266C126.315 10.7266 127.155 10.8372 127.871 11.0586C128.587 11.2799 129.18 11.5729 129.648 11.9375C130.13 12.3021 130.488 12.7253 130.723 13.207C130.957 13.6758 131.074 14.1641 131.074 14.6719C131.074 15.0495 131.022 15.4141 130.918 15.7656C130.827 16.1042 130.684 16.4036 130.488 16.6641C130.306 16.9115 130.072 17.1133 129.785 17.2695C129.499 17.4128 129.167 17.4844 128.789 17.4844ZM154.082 7.99219C154.082 8.44792 154.154 8.82552 154.297 9.125C154.44 9.41146 154.616 9.65885 154.824 9.86719C155.046 10.0625 155.28 10.2253 155.527 10.3555C155.775 10.4857 156.003 10.6224 156.211 10.7656C156.432 10.9089 156.615 11.0716 156.758 11.2539C156.901 11.4362 156.973 11.6706 156.973 11.957C156.973 12.4388 156.803 12.8099 156.465 13.0703C156.126 13.3177 155.736 13.4414 155.293 13.4414C154.876 13.4414 154.486 13.3112 154.121 13.0508C153.77 12.7904 153.457 12.4388 153.184 11.9961C152.923 11.5404 152.715 11.013 152.559 10.4141C152.402 9.80208 152.324 9.15755 152.324 8.48047C152.324 7.64714 152.454 6.85286 152.715 6.09766C152.975 5.32943 153.359 4.65885 153.867 4.08594C154.375 3.5 155 3.03776 155.742 2.69922C156.497 2.36068 157.357 2.19141 158.32 2.19141C158.971 2.19141 159.681 2.30208 160.449 2.52344C161.217 2.73177 161.979 3.07031 162.734 3.53906C163.503 4.00781 164.238 4.61328 164.941 5.35547C165.658 6.09766 166.289 7.0026 166.836 8.07031C167.396 9.13802 167.839 10.375 168.164 11.7812C168.49 13.1875 168.652 14.7826 168.652 16.5664C168.652 18.8711 168.307 20.9349 167.617 22.7578C166.94 24.5807 166.016 26.1302 164.844 27.4062C163.685 28.6693 162.337 29.6393 160.801 30.3164C159.264 30.9805 157.637 31.3125 155.918 31.3125C154.212 31.3125 152.585 31.0195 151.035 30.4336C149.486 29.8477 148.118 28.9557 146.934 27.7578C145.762 26.5469 144.824 25.0169 144.121 23.168C143.431 21.306 143.086 19.1055 143.086 16.5664C143.086 14.6003 143.346 12.8099 143.867 11.1953C144.401 9.58073 145.111 8.14844 145.996 6.89844C146.895 5.64844 147.936 4.60026 149.121 3.75391C150.306 2.89453 151.562 2.24349 152.891 1.80078L153.555 2.64062C153.177 3.01823 152.826 3.40885 152.5 3.8125C152.174 4.21615 151.875 4.67839 151.602 5.19922C151.328 5.70703 151.081 6.29948 150.859 6.97656C150.651 7.64062 150.475 8.42839 150.332 9.33984C150.189 10.2383 150.078 11.2799 150 12.4648C149.922 13.6497 149.883 15.0169 149.883 16.5664C149.883 18.5716 149.987 20.2839 150.195 21.7031C150.417 23.1224 150.697 24.3138 151.035 25.2773C151.387 26.2279 151.777 26.9896 152.207 27.5625C152.65 28.1224 153.092 28.5456 153.535 28.832C153.978 29.1185 154.408 29.3073 154.824 29.3984C155.241 29.4766 155.605 29.5156 155.918 29.5156C156.23 29.5156 156.589 29.4766 156.992 29.3984C157.409 29.3073 157.832 29.1185 158.262 28.832C158.704 28.5456 159.141 28.1224 159.57 27.5625C160 26.9896 160.378 26.2279 160.703 25.2773C161.042 24.3138 161.315 23.1224 161.523 21.7031C161.732 20.2839 161.836 18.5716 161.836 16.5664C161.836 14.8086 161.758 13.2786 161.602 11.9766C161.445 10.6745 161.237 9.5612 160.977 8.63672C160.729 7.71224 160.436 6.95703 160.098 6.37109C159.772 5.77214 159.427 5.30339 159.062 4.96484C158.711 4.61328 158.353 4.3724 157.988 4.24219C157.637 4.11198 157.311 4.04688 157.012 4.04688C156.543 4.04688 156.126 4.15755 155.762 4.37891C155.397 4.60026 155.091 4.89974 154.844 5.27734C154.596 5.64193 154.408 6.0651 154.277 6.54688C154.147 7.01562 154.082 7.4974 154.082 7.99219ZM182.344 1.95703C181.979 1.95703 181.634 2.03516 181.309 2.19141C180.983 2.34766 180.697 2.60156 180.449 2.95312C180.215 3.29167 180.026 3.72786 179.883 4.26172C179.74 4.79557 179.668 5.4401 179.668 6.19531V11H183.945V12.4062H179.668V27.7969C179.668 29.5677 179.434 31.2018 178.965 32.6992C178.509 34.1966 177.812 35.4857 176.875 36.5664C175.938 37.6602 174.766 38.513 173.359 39.125C171.953 39.737 170.312 40.043 168.438 40.043C167.773 40.043 167.135 39.9844 166.523 39.8672C165.911 39.763 165.371 39.6133 164.902 39.418C164.434 39.2227 164.062 38.9883 163.789 38.7148C163.503 38.4544 163.359 38.1615 163.359 37.8359C163.359 37.6016 163.392 37.3607 163.457 37.1133C163.522 36.8789 163.62 36.6641 163.75 36.4688C163.88 36.2734 164.043 36.1107 164.238 35.9805C164.421 35.8633 164.635 35.8047 164.883 35.8047C165.026 35.8047 165.156 35.8763 165.273 36.0195C165.378 36.1628 165.488 36.3385 165.605 36.5469C165.723 36.7552 165.859 36.9831 166.016 37.2305C166.159 37.4909 166.348 37.7253 166.582 37.9336C166.816 38.1419 167.109 38.3177 167.461 38.4609C167.799 38.6042 168.216 38.6758 168.711 38.6758C169.375 38.6758 169.961 38.5391 170.469 38.2656C170.977 38.0052 171.413 37.6406 171.777 37.1719C172.142 36.7031 172.448 36.1497 172.695 35.5117C172.943 34.8737 173.138 34.1901 173.281 33.4609C173.424 32.7318 173.522 31.9701 173.574 31.1758C173.639 30.3815 173.672 29.5872 173.672 28.793V12.4062H170.078V11H173.672V8.71484C173.672 7.56901 173.809 6.57292 174.082 5.72656C174.368 4.86719 174.74 4.13802 175.195 3.53906C175.664 2.9401 176.191 2.45182 176.777 2.07422C177.363 1.69661 177.956 1.39714 178.555 1.17578C179.167 0.954427 179.759 0.804688 180.332 0.726562C180.905 0.648438 181.406 0.609375 181.836 0.609375C182.76 0.609375 183.581 0.68099 184.297 0.824219C185.013 0.954427 185.612 1.13672 186.094 1.37109C186.576 1.59245 186.94 1.85286 187.188 2.15234C187.435 2.45182 187.559 2.75781 187.559 3.07031C187.559 3.30469 187.52 3.54557 187.441 3.79297C187.376 4.02734 187.279 4.2487 187.148 4.45703C187.018 4.65234 186.855 4.8151 186.66 4.94531C186.478 5.0625 186.27 5.12109 186.035 5.12109C185.892 5.12109 185.762 5.04297 185.645 4.88672C185.527 4.73047 185.404 4.53516 185.273 4.30078C185.143 4.06641 185 3.8125 184.844 3.53906C184.688 3.26562 184.492 3.01172 184.258 2.77734C184.036 2.54297 183.77 2.34766 183.457 2.19141C183.145 2.03516 182.773 1.95703 182.344 1.95703ZM207.305 3.48047C206.953 3.48047 206.543 3.55208 206.074 3.69531C205.605 3.83854 205.124 4.11198 204.629 4.51562C204.147 4.90625 203.672 5.45964 203.203 6.17578C202.734 6.89193 202.311 7.82292 201.934 8.96875C201.569 10.1016 201.27 11.4818 201.035 13.1094C200.814 14.737 200.703 16.6576 200.703 18.8711C200.703 20.9805 200.814 22.8099 201.035 24.3594C201.27 25.9089 201.576 27.2305 201.953 28.3242C202.344 29.4049 202.786 30.2904 203.281 30.9805C203.776 31.6706 204.297 32.2044 204.844 32.582C205.391 32.9727 205.938 33.2396 206.484 33.3828C207.031 33.526 207.546 33.5977 208.027 33.5977C208.535 33.5977 209.049 33.5326 209.57 33.4023C210.091 33.2721 210.599 33.0833 211.094 32.8359C211.602 32.5885 212.083 32.2891 212.539 31.9375C213.008 31.5859 213.438 31.1823 213.828 30.7266L214.707 31.6055C214.316 32.0872 213.848 32.5755 213.301 33.0703C212.754 33.5781 212.116 34.0339 211.387 34.4375C210.671 34.8542 209.863 35.1927 208.965 35.4531C208.066 35.7135 207.07 35.8438 205.977 35.8438C204.271 35.8438 202.682 35.5182 201.211 34.8672C199.753 34.2161 198.477 33.2005 197.383 31.8203C196.302 30.4531 195.449 28.6953 194.824 26.5469C194.212 24.3984 193.906 21.8268 193.906 18.832C193.906 16.0195 194.232 13.5521 194.883 11.4297C195.534 9.30729 196.419 7.53646 197.539 6.11719C198.659 4.6849 199.974 3.61068 201.484 2.89453C202.995 2.16536 204.603 1.80078 206.309 1.80078C207.441 1.80078 208.47 1.91146 209.395 2.13281C210.332 2.34115 211.139 2.65365 211.816 3.07031C212.493 3.47396 213.014 3.98177 213.379 4.59375C213.757 5.19271 213.945 5.8763 213.945 6.64453C213.945 6.99609 213.887 7.36719 213.77 7.75781C213.652 8.13542 213.47 8.48698 213.223 8.8125C212.988 9.125 212.695 9.38542 212.344 9.59375C211.992 9.78906 211.582 9.88672 211.113 9.88672C210.697 9.88672 210.371 9.79557 210.137 9.61328C209.915 9.43099 209.746 9.1901 209.629 8.89062C209.525 8.59115 209.453 8.2526 209.414 7.875C209.388 7.48438 209.368 7.08724 209.355 6.68359C209.342 6.27995 209.31 5.88932 209.258 5.51172C209.219 5.12109 209.128 4.77604 208.984 4.47656C208.854 4.17708 208.659 3.9362 208.398 3.75391C208.138 3.57161 207.773 3.48047 207.305 3.48047ZM232.109 13.793C232.109 16.1758 231.875 18.4805 231.406 20.707C230.951 22.9206 230.312 25.0039 229.492 26.957C228.685 28.8971 227.721 30.668 226.602 32.2695C225.482 33.8841 224.264 35.2643 222.949 36.4102C221.634 37.556 220.241 38.4479 218.77 39.0859C217.311 39.724 215.833 40.043 214.336 40.043C213.19 40.043 212.305 39.8477 211.68 39.457C211.055 39.0794 210.742 38.5651 210.742 37.9141C210.742 37.6667 210.781 37.4258 210.859 37.1914C210.938 36.957 211.042 36.7487 211.172 36.5664C211.302 36.3841 211.458 36.2344 211.641 36.1172C211.823 36.013 212.018 35.9609 212.227 35.9609C212.474 35.9609 212.682 36.0846 212.852 36.332C213.008 36.5794 213.177 36.8464 213.359 37.1328C213.542 37.4323 213.763 37.7057 214.023 37.9531C214.284 38.2005 214.642 38.3242 215.098 38.3242C215.684 38.3242 216.296 38.2201 216.934 38.0117C217.572 37.8164 218.21 37.5299 218.848 37.1523C219.499 36.7747 220.143 36.3125 220.781 35.7656C221.432 35.2318 222.07 34.6328 222.695 33.9688C222.331 32.6536 221.908 31.2214 221.426 29.6719C220.957 28.1094 220.456 26.5404 219.922 24.9648C219.401 23.3893 218.861 21.8724 218.301 20.4141C217.754 18.9427 217.214 17.6406 216.68 16.5078C216.159 15.375 215.651 14.4701 215.156 13.793C214.674 13.1029 214.245 12.7578 213.867 12.7578C213.62 12.7578 213.431 12.7969 213.301 12.875C213.158 12.9531 212.995 13.0638 212.812 13.207L212.422 12.7188C212.682 12.4974 212.956 12.2695 213.242 12.0352C213.529 11.8008 213.867 11.5859 214.258 11.3906C214.648 11.1953 215.104 11.0391 215.625 10.9219C216.146 10.7917 216.771 10.7266 217.5 10.7266C218.294 10.7266 219.03 10.9089 219.707 11.2734C220.397 11.625 221.022 12.2826 221.582 13.2461C221.986 13.9622 222.402 14.8216 222.832 15.8242C223.275 16.8268 223.717 17.9466 224.16 19.1836C224.603 20.4206 225.046 21.7617 225.488 23.207C225.944 24.6393 226.4 26.1432 226.855 27.7188C227.663 26.026 228.314 24.2357 228.809 22.3477C229.303 20.4466 229.551 18.4935 229.551 16.4883C229.551 15.7721 229.505 15.1602 229.414 14.6523C229.323 14.1445 229.219 13.7148 229.102 13.3633C228.984 12.9987 228.88 12.6927 228.789 12.4453C228.698 12.1849 228.652 11.957 228.652 11.7617C228.652 11.5664 228.73 11.4036 228.887 11.2734C229.043 11.1302 229.232 11.0195 229.453 10.9414C229.674 10.8633 229.896 10.8112 230.117 10.7852C230.352 10.7461 230.547 10.7266 230.703 10.7266C231.055 10.7266 231.322 10.7982 231.504 10.9414C231.699 11.0846 231.842 11.293 231.934 11.5664C232.025 11.8268 232.077 12.1458 232.09 12.5234C232.103 12.901 232.109 13.3242 232.109 13.793ZM235.996 14.1641C235.996 13.7865 235.905 13.4609 235.723 13.1875C235.553 12.901 235.26 12.7578 234.844 12.7578C234.622 12.7578 234.434 12.7969 234.277 12.875C234.121 12.9531 233.952 13.0638 233.77 13.207L233.359 12.7188C233.659 12.4714 233.991 12.2305 234.355 11.9961C234.733 11.7487 235.137 11.5339 235.566 11.3516C235.996 11.1693 236.458 11.0195 236.953 10.9023C237.448 10.7852 237.969 10.7266 238.516 10.7266C239.102 10.7266 239.603 10.8177 240.02 11C240.436 11.1823 240.781 11.4036 241.055 11.6641C241.341 11.9115 241.556 12.1784 241.699 12.4648C241.842 12.7383 241.927 12.9727 241.953 13.168C242.214 12.8034 242.52 12.4714 242.871 12.1719C243.236 11.8724 243.626 11.6185 244.043 11.4102C244.473 11.1888 244.922 11.0195 245.391 10.9023C245.872 10.7852 246.367 10.7266 246.875 10.7266C247.917 10.7266 248.861 10.9414 249.707 11.3711C250.553 11.8008 251.276 12.4388 251.875 13.2852C252.487 14.1315 252.956 15.1797 253.281 16.4297C253.607 17.6797 253.77 19.125 253.77 20.7656C253.77 22.6667 253.568 24.2878 253.164 25.6289C252.773 26.957 252.253 28.0443 251.602 28.8906C250.964 29.737 250.228 30.3555 249.395 30.7461C248.574 31.1237 247.734 31.3125 246.875 31.3125C246.159 31.3125 245.527 31.2409 244.98 31.0977C244.447 30.9544 243.984 30.7786 243.594 30.5703C243.203 30.362 242.878 30.1536 242.617 29.9453C242.357 29.724 242.148 29.5417 241.992 29.3984V38.9297C241.992 39.099 241.966 39.3008 241.914 39.5352C241.862 39.7695 241.732 39.9909 241.523 40.1992C241.328 40.4206 241.029 40.6094 240.625 40.7656C240.234 40.9219 239.694 41 239.004 41C238.314 41 237.767 40.9154 237.363 40.7461C236.973 40.5898 236.673 40.3945 236.465 40.1602C236.257 39.9388 236.126 39.7109 236.074 39.4766C236.022 39.2552 235.996 39.0729 235.996 38.9297V14.1641ZM241.992 26.6055C241.992 26.7096 242.038 26.8919 242.129 27.1523C242.22 27.4128 242.363 27.6797 242.559 27.9531C242.754 28.2266 243.001 28.474 243.301 28.6953C243.613 28.9036 243.991 29.0078 244.434 29.0078C245.007 29.0078 245.495 28.793 245.898 28.3633C246.302 27.9206 246.634 27.3281 246.895 26.5859C247.155 25.8307 247.344 24.9583 247.461 23.9688C247.578 22.9661 247.637 21.8984 247.637 20.7656C247.637 19.3724 247.559 18.194 247.402 17.2305C247.259 16.2669 247.044 15.4922 246.758 14.9062C246.471 14.3073 246.126 13.8776 245.723 13.6172C245.332 13.3438 244.889 13.207 244.395 13.207C244.108 13.207 243.822 13.2917 243.535 13.4609C243.249 13.6172 242.988 13.819 242.754 14.0664C242.533 14.3008 242.35 14.5677 242.207 14.8672C242.064 15.1667 241.992 15.4531 241.992 15.7266V26.6055ZM263.711 14.8477C264.206 14.0924 264.733 13.4089 265.293 12.7969C265.527 12.5365 265.781 12.2826 266.055 12.0352C266.328 11.7878 266.608 11.5664 266.895 11.3711C267.194 11.1758 267.5 11.0195 267.812 10.9023C268.125 10.7852 268.438 10.7266 268.75 10.7266C269.414 10.7266 269.935 10.9284 270.312 11.332C270.69 11.7227 270.879 12.276 270.879 12.9922C270.879 13.4349 270.84 13.8646 270.762 14.2812C270.697 14.6849 270.56 15.1797 270.352 15.7656H269.805C269.727 15.362 269.544 15.0299 269.258 14.7695C268.971 14.4961 268.555 14.3594 268.008 14.3594C267.604 14.3594 267.207 14.4375 266.816 14.5938C266.426 14.737 266.042 14.9193 265.664 15.1406C265.299 15.362 264.948 15.6029 264.609 15.8633C264.284 16.1237 263.984 16.3711 263.711 16.6055V29.2812C263.711 29.4505 263.685 29.6523 263.633 29.8867C263.581 30.1211 263.451 30.3424 263.242 30.5508C263.047 30.7591 262.747 30.9349 262.344 31.0781C261.953 31.2344 261.413 31.3125 260.723 31.3125C260.033 31.3125 259.486 31.2279 259.082 31.0586C258.691 30.9023 258.392 30.7135 258.184 30.4922C257.975 30.2708 257.845 30.043 257.793 29.8086C257.741 29.5742 257.715 29.3854 257.715 29.2422V14.1641C257.715 13.7865 257.624 13.4609 257.441 13.1875C257.272 12.901 256.979 12.7578 256.562 12.7578C256.341 12.7578 256.152 12.7969 255.996 12.875C255.84 12.9531 255.671 13.0638 255.488 13.207L255.078 12.7188C255.378 12.4714 255.71 12.2305 256.074 11.9961C256.452 11.7487 256.855 11.5339 257.285 11.3516C257.715 11.1693 258.177 11.0195 258.672 10.9023C259.167 10.7852 259.688 10.7266 260.234 10.7266C260.794 10.7266 261.27 10.8047 261.66 10.9609C262.064 11.1042 262.389 11.2995 262.637 11.5469C262.897 11.7812 263.099 12.0482 263.242 12.3477C263.385 12.6471 263.49 12.9531 263.555 13.2656C263.633 13.5651 263.678 13.8581 263.691 14.1445C263.704 14.418 263.711 14.6523 263.711 14.8477ZM277.598 22.0352C277.598 22.4518 277.656 22.9076 277.773 23.4023C277.904 23.8841 278.086 24.3724 278.32 24.8672C278.555 25.362 278.841 25.8372 279.18 26.293C279.531 26.7357 279.928 27.1328 280.371 27.4844C280.827 27.8359 281.328 28.1159 281.875 28.3242C282.422 28.5326 283.021 28.6367 283.672 28.6367C284.128 28.6367 284.551 28.5846 284.941 28.4805C285.332 28.3763 285.697 28.2331 286.035 28.0508C286.374 27.8685 286.699 27.6602 287.012 27.4258C287.324 27.1784 287.637 26.918 287.949 26.6445L288.438 27.1133C288.138 27.5169 287.754 27.9596 287.285 28.4414C286.816 28.9232 286.25 29.3789 285.586 29.8086C284.922 30.2253 284.147 30.5768 283.262 30.8633C282.376 31.1367 281.367 31.2734 280.234 31.2734C279.102 31.2734 277.995 31.0716 276.914 30.668C275.846 30.2513 274.896 29.6328 274.062 28.8125C273.229 27.9922 272.559 26.9701 272.051 25.7461C271.556 24.5221 271.309 23.0898 271.309 21.4492C271.309 20.2643 271.458 19.1771 271.758 18.1875C272.057 17.1979 272.461 16.306 272.969 15.5117C273.49 14.7174 274.089 14.0208 274.766 13.4219C275.456 12.8229 276.178 12.3281 276.934 11.9375C277.689 11.5339 278.457 11.2344 279.238 11.0391C280.033 10.8307 280.794 10.7266 281.523 10.7266C282.487 10.7266 283.327 10.8307 284.043 11.0391C284.759 11.2474 285.352 11.5273 285.82 11.8789C286.302 12.2305 286.66 12.6406 286.895 13.1094C287.129 13.5651 287.246 14.0469 287.246 14.5547C287.246 15.1667 287.07 15.7201 286.719 16.2148C286.367 16.6966 285.898 17.1198 285.312 17.4844L277.598 22.0352ZM281.523 18.0703C281.693 17.9661 281.829 17.8685 281.934 17.7773C282.051 17.6732 282.142 17.556 282.207 17.4258C282.272 17.2826 282.318 17.1133 282.344 16.918C282.383 16.7096 282.402 16.4557 282.402 16.1562C282.402 15.8307 282.363 15.4727 282.285 15.082C282.22 14.6784 282.103 14.3008 281.934 13.9492C281.764 13.5977 281.549 13.3047 281.289 13.0703C281.029 12.8359 280.716 12.7188 280.352 12.7188C279.883 12.7188 279.479 12.862 279.141 13.1484C278.815 13.4219 278.542 13.7799 278.32 14.2227C278.112 14.6654 277.943 15.1732 277.812 15.7461C277.695 16.306 277.604 16.8724 277.539 17.4453C277.474 18.0182 277.435 18.5716 277.422 19.1055C277.409 19.6263 277.402 20.069 277.402 20.4336L281.523 18.0703ZM297.344 12.2891C297.044 12.2891 296.758 12.3281 296.484 12.4062C296.224 12.4844 295.99 12.6146 295.781 12.7969C295.573 12.9661 295.41 13.1875 295.293 13.4609C295.176 13.7214 295.117 14.0339 295.117 14.3984C295.117 14.9062 295.299 15.4141 295.664 15.9219C296.042 16.4167 296.504 16.9375 297.051 17.4844C297.611 18.0182 298.21 18.5781 298.848 19.1641C299.499 19.737 300.098 20.349 300.645 21C301.204 21.638 301.667 22.3216 302.031 23.0508C302.409 23.7799 302.598 24.5612 302.598 25.3945C302.598 26.332 302.435 27.1654 302.109 27.8945C301.797 28.6237 301.341 29.2422 300.742 29.75C300.156 30.2578 299.44 30.6484 298.594 30.9219C297.76 31.1823 296.829 31.3125 295.801 31.3125C294.902 31.3125 294.089 31.1888 293.359 30.9414C292.63 30.681 291.979 30.3685 291.406 30.0039C290.846 29.6263 290.365 29.2292 289.961 28.8125C289.557 28.3958 289.245 28.0182 289.023 27.6797L289.707 27.1914C289.876 27.3867 290.091 27.6016 290.352 27.8359C290.612 28.0573 290.898 28.2656 291.211 28.4609C291.536 28.6562 291.882 28.819 292.246 28.9492C292.611 29.0664 292.982 29.125 293.359 29.125C294.297 29.125 295.065 28.9036 295.664 28.4609C296.263 28.0052 296.562 27.3346 296.562 26.4492C296.562 25.9544 296.4 25.4466 296.074 24.9258C295.749 24.3919 295.339 23.8451 294.844 23.2852C294.349 22.7253 293.815 22.1458 293.242 21.5469C292.669 20.9479 292.135 20.3294 291.641 19.6914C291.146 19.0534 290.736 18.3958 290.41 17.7188C290.085 17.0417 289.922 16.3385 289.922 15.6094C289.922 14.7891 290.085 14.0729 290.41 13.4609C290.749 12.849 291.191 12.3411 291.738 11.9375C292.298 11.5339 292.93 11.2344 293.633 11.0391C294.349 10.8307 295.085 10.7266 295.84 10.7266C296.712 10.7266 297.507 10.8047 298.223 10.9609C298.939 11.1172 299.551 11.3581 300.059 11.6836C300.579 11.9961 300.977 12.3932 301.25 12.875C301.536 13.3568 301.68 13.9167 301.68 14.5547C301.68 15.0495 301.517 15.4792 301.191 15.8438C300.866 16.2083 300.41 16.3906 299.824 16.3906C299.264 16.3906 298.835 16.2734 298.535 16.0391C298.249 15.7917 298.105 15.4596 298.105 15.043C298.105 14.7695 298.171 14.5547 298.301 14.3984C298.444 14.2422 298.6 14.1185 298.77 14.0273C298.939 13.9232 299.089 13.8385 299.219 13.7734C299.362 13.6953 299.434 13.5977 299.434 13.4805C299.434 13.1159 299.238 12.8294 298.848 12.6211C298.457 12.3997 297.956 12.2891 297.344 12.2891ZM312.109 12.2891C311.81 12.2891 311.523 12.3281 311.25 12.4062C310.99 12.4844 310.755 12.6146 310.547 12.7969C310.339 12.9661 310.176 13.1875 310.059 13.4609C309.941 13.7214 309.883 14.0339 309.883 14.3984C309.883 14.9062 310.065 15.4141 310.43 15.9219C310.807 16.4167 311.27 16.9375 311.816 17.4844C312.376 18.0182 312.975 18.5781 313.613 19.1641C314.264 19.737 314.863 20.349 315.41 21C315.97 21.638 316.432 22.3216 316.797 23.0508C317.174 23.7799 317.363 24.5612 317.363 25.3945C317.363 26.332 317.201 27.1654 316.875 27.8945C316.562 28.6237 316.107 29.2422 315.508 29.75C314.922 30.2578 314.206 30.6484 313.359 30.9219C312.526 31.1823 311.595 31.3125 310.566 31.3125C309.668 31.3125 308.854 31.1888 308.125 30.9414C307.396 30.681 306.745 30.3685 306.172 30.0039C305.612 29.6263 305.13 29.2292 304.727 28.8125C304.323 28.3958 304.01 28.0182 303.789 27.6797L304.473 27.1914C304.642 27.3867 304.857 27.6016 305.117 27.8359C305.378 28.0573 305.664 28.2656 305.977 28.4609C306.302 28.6562 306.647 28.819 307.012 28.9492C307.376 29.0664 307.747 29.125 308.125 29.125C309.062 29.125 309.831 28.9036 310.43 28.4609C311.029 28.0052 311.328 27.3346 311.328 26.4492C311.328 25.9544 311.165 25.4466 310.84 24.9258C310.514 24.3919 310.104 23.8451 309.609 23.2852C309.115 22.7253 308.581 22.1458 308.008 21.5469C307.435 20.9479 306.901 20.3294 306.406 19.6914C305.911 19.0534 305.501 18.3958 305.176 17.7188C304.85 17.0417 304.688 16.3385 304.688 15.6094C304.688 14.7891 304.85 14.0729 305.176 13.4609C305.514 12.849 305.957 12.3411 306.504 11.9375C307.064 11.5339 307.695 11.2344 308.398 11.0391C309.115 10.8307 309.85 10.7266 310.605 10.7266C311.478 10.7266 312.272 10.8047 312.988 10.9609C313.704 11.1172 314.316 11.3581 314.824 11.6836C315.345 11.9961 315.742 12.3932 316.016 12.875C316.302 13.3568 316.445 13.9167 316.445 14.5547C316.445 15.0495 316.283 15.4792 315.957 15.8438C315.632 16.2083 315.176 16.3906 314.59 16.3906C314.03 16.3906 313.6 16.2734 313.301 16.0391C313.014 15.7917 312.871 15.4596 312.871 15.043C312.871 14.7695 312.936 14.5547 313.066 14.3984C313.21 14.2422 313.366 14.1185 313.535 14.0273C313.704 13.9232 313.854 13.8385 313.984 13.7734C314.128 13.6953 314.199 13.5977 314.199 13.4805C314.199 13.1159 314.004 12.8294 313.613 12.6211C313.223 12.3997 312.721 12.2891 312.109 12.2891Z" fill="white"/>
</svg>
