<svg width="31" height="41" viewBox="0 0 31 41" fill="none" xmlns="http://www.w3.org/2000/svg">
<path d="M15.5 20.2595C16.5656 20.2595 17.4782 19.8675 18.2377 19.0835C18.9959 18.3009 19.375 17.3595 19.375 16.2595C19.375 15.1595 18.9959 14.2175 18.2377 13.4335C17.4782 12.6509 16.5656 12.2595 15.5 12.2595C14.4344 12.2595 13.5225 12.6509 12.7643 13.4335C12.0048 14.2175 11.625 15.1595 11.625 16.2595C11.625 17.3595 12.0048 18.3009 12.7643 19.0835C13.5225 19.8675 14.4344 20.2595 15.5 20.2595ZM15.5 40.2595C10.301 35.6929 6.41829 31.4509 3.85175 27.5335C1.28392 23.6175 0 19.9929 0 16.6595C0 11.6595 1.5584 7.67619 4.67519 4.70952C7.79069 1.74285 11.399 0.259521 15.5 0.259521C19.601 0.259521 23.2093 1.74285 26.3248 4.70952C29.4416 7.67619 31 11.6595 31 16.6595C31 19.9929 29.7167 23.6175 27.1502 27.5335C24.5824 31.4509 20.699 35.6929 15.5 40.2595Z" fill="#E9E9E9" fill-opacity="0.74"/>
</svg>
