<svg width="35" height="37" viewBox="0 0 35 37" fill="none" xmlns="http://www.w3.org/2000/svg">
<path d="M2.04167 36.7554C1.45833 36.7554 0.972222 36.5554 0.583333 36.1554C0.194444 35.7554 0 35.2554 0 34.6554V26.5554C0 26.0887 0.145833 25.68 0.4375 25.3294C0.729167 24.98 1.10185 24.7554 1.55556 24.6554L8.26389 23.2554C8.71759 23.1887 9.17972 23.23 9.65028 23.3794C10.1195 23.53 10.5 23.7554 10.7917 24.0554L15.3611 28.7554C17.8241 27.222 20.0764 25.4054 22.1181 23.3054C24.1597 21.2054 25.8611 18.9554 27.2222 16.5554L22.5556 11.6554C22.2639 11.3554 22.0772 11.0134 21.9956 10.6294C21.9152 10.2467 21.9074 9.82204 21.9722 9.35537L23.2361 2.35537C23.3009 1.8887 23.5116 1.50537 23.8681 1.20537C24.2245 0.905371 24.6296 0.755371 25.0833 0.755371H32.9583C33.5417 0.755371 34.0278 0.955371 34.4167 1.35537C34.8056 1.75537 35 2.25537 35 2.85537C35 7.15537 34.068 11.3467 32.2039 15.4294C30.3411 19.5134 27.8781 23.13 24.815 26.2794C21.7531 29.43 18.2376 31.9634 14.2683 33.8794C10.2978 35.7967 6.22222 36.7554 2.04167 36.7554Z" fill="#E9E9E9" fill-opacity="0.74"/>
</svg>
